PathFileType	4	(X/Y/Z)	 s11c0101.trc
DataRate	CameraRate	NumFrames	NumMarkers	Units	OrigDataRate	OrigDataStartFrame	OrigNumFrames
200	200	4	48	mm	200	1501	2000
Frame#	Time	racr			lacr			c7			jug			rlel			rdr			llel			ldr			s2			lic			ric			lasi			rasi			rpsi			lpsi			rgt			lgt			rth1			rth2			rth3			rth4			rlfc			rmfc			rsh1			rsh2			rsh3			rsh4			rlmal			rcal			rtoe			rmt5			lth1			lth2			lth4			lth3			llfc			lmfc			llmal			lcal			lmt5			lsh1			lsh2			lsh3			lsh4			ltoe			SBIKE			LBIKE			RBIKE			
		X1	Y1	Z1	X2	Y2	Z2	X3	Y3	Z3	X4	Y4	Z4	X5	Y5	Z5	X6	Y6	Z6	X7	Y7	Z7	X8	Y8	Z8	X9	Y9	Z9	X10	Y10	Z10	X11	Y11	Z11	X12	Y12	Z12	X13	Y13	Z13	X14	Y14	Z14	X15	Y15	Z15	X16	Y16	Z16	X17	Y17	Z17	X18	Y18	Z18	X19	Y19	Z19	X20	Y20	Z20	X21	Y21	Z21	X22	Y22	Z22	X23	Y23	Z23	X24	Y24	Z24	X25	Y25	Z25	X26	Y26	Z26	X27	Y27	Z27	X28	Y28	Z28	X29	Y29	Z29	X30	Y30	Z30	X31	Y31	Z31	X32	Y32	Z32	X33	Y33	Z33	X34	Y34	Z34	X35	Y35	Z35	X36	Y36	Z36	X37	Y37	Z37	X38	Y38	Z38	X39	Y39	Z39	X40	Y40	Z40	X41	Y41	Z41	X42	Y42	Z42	X43	Y43	Z43	X44	Y44	Z44	X45	Y45	Z45	X46	Y46	Z46	X47	Y47	Z47	X48	Y48	Z48	
1501	7.5050	518.477437	1332.440965	-20.694700	556.933148	1338.508074	-362.886097	492.326952	1443.458975	-192.673720	496.627435	1258.071533	-201.786601	521.164452	1055.931043	61.079736	767.362362	938.472710	-26.099282	508.602598	1059.897944	-516.435741	788.899734	930.923262	-443.869622	-73.847920	1216.351149	-272.450536	161.557465	1226.548111	-452.868975	118.612103	1232.000952	-48.093423	187.921078	1157.868184	-421.482118	144.019760	1185.691964	-102.280426	-38.508570	1293.446769	-218.953899	-29.292948	1283.233513	-314.486974	99.848381	1121.622091	-34.838108	56.534111	1087.181765	-463.512382	231.879777	1076.011693	-28.993877	320.042397	1078.942108	-36.405289	397.081494	1037.780356	-42.215060	328.546140	1113.803116	-46.304791	501.574780	1010.936039	-56.014163	519.519688	993.893536	-189.476533	429.570834	879.828435	-52.026248	399.748271	799.013709	-72.491842	333.898894	742.447532	-78.644268	424.608990	787.094189	-99.972097	242.207600	633.417164	-95.610926	184.345584	655.375974	-146.874403	388.514577	453.991348	-136.691851	316.649616	478.112040	-69.246717	119.768181	953.745298	-481.057870	167.337599	882.947608	-476.150846	202.948490	894.174369	-472.205532	172.984605	793.961718	-462.817754	218.796454	663.462906	-433.375481	233.114616	657.655901	-303.939296	99.174093	245.322353	-414.112052	45.440852	197.567044	-379.163537	250.390939	155.353850	-444.290316	182.106882	545.074881	-453.584602	183.037509	459.837527	-438.735347	141.335259	382.259042	-434.623624	213.418646	455.474267	-415.727252	343.506592	185.987809	-374.921985	-204.659160	961.686709	-262.909316	1.389990	82.543742	-461.164356	-15.181686	81.369683	-62.584583	
1502	7.5100	518.439434	1333.643452	-20.231865	557.015760	1339.075684	-360.879295	492.691812	1442.671655	-191.508746	495.870953	1256.653177	-200.662940	522.997162	1057.790834	62.070896	767.669589	938.763042	-26.139393	510.772643	1062.066212	-517.419474	789.332413	930.982254	-443.859913	-73.554366	1218.578510	-273.397155	162.103587	1227.759394	-453.095216	117.286340	1234.436147	-48.562616	188.171497	1158.665614	-421.976609	142.450103	1187.710673	-102.492645	-38.567330	1296.178258	-219.765548	-28.775469	1285.432784	-315.112609	98.309147	1124.286298	-34.782799	55.564841	1088.888252	-463.960709	230.443941	1079.031761	-29.506266	319.093581	1082.051203	-35.190939	395.694273	1040.754544	-42.895727	326.811360	1117.421028	-45.947344	499.801945	1015.093945	-55.693110	517.632277	997.556469	-190.340653	430.450094	881.313891	-52.595801	402.395243	799.681996	-72.577257	337.710541	741.835468	-78.605531	427.533919	788.236259	-100.120039	247.791485	631.198978	-95.185908	188.821783	651.443095	-146.181509	399.453860	456.750275	-136.430275	326.824199	478.289006	-69.132389	118.735101	955.436163	-482.053210	166.844856	884.902536	-477.863699	202.430340	896.360863	-474.873663	173.344405	795.991485	-464.282822	219.618487	665.684502	-435.536981	236.569387	659.897772	-306.684531	91.249500	250.243777	-414.294850	36.722195	203.751306	-379.037116	240.481220	156.559690	-444.484049	180.977436	547.857103	-455.255392	180.007186	462.560586	-439.987077	136.515138	386.007584	-435.469527	210.402613	457.566347	-417.174489	334.503248	184.929104	-375.435809	-204.648592	961.763713	-262.852855	1.398565	82.604216	-461.177419	-15.178921	81.413712	-62.581843	
1503	7.5150	518.544916	1334.663232	-20.056417	557.012143	1339.159926	-358.921123	493.246670	1441.626516	-190.593047	495.042007	1255.367436	-199.331067	524.914436	1059.494275	62.991130	767.967573	938.907973	-26.219132	512.909857	1064.015300	-518.346801	789.590178	931.014319	-443.848488	-73.419695	1220.799920	-274.141629	162.308204	1228.729175	-453.133956	116.038761	1236.979197	-49.024028	188.202802	1159.428613	-422.412715	140.899849	1189.783475	-102.756096	-38.628177	1298.817006	-220.276177	-28.429274	1287.739053	-315.545015	96.507179	1127.044422	-34.775778	54.598999	1090.530284	-464.385230	228.844601	1081.613471	-30.069377	317.164541	1084.349696	-36.431213	394.065313	1042.881174	-43.788352	325.837399	1118.895836	-47.027424	498.304639	1018.158754	-54.624625	515.973368	1000.061092	-190.932344	431.289976	881.835352	-53.201753	404.857696	799.382726	-72.806135	341.462229	740.221379	-78.525515	430.189927	788.507937	-100.530871	253.195716	628.117340	-94.775134	193.128882	646.501033	-145.501443	410.107574	458.712642	-136.222331	336.904920	477.862826	-68.761553	117.894870	957.024038	-482.970440	166.842345	887.102896	-479.443813	202.349893	898.799092	-477.343208	174.537977	798.140673	-465.709279	221.594889	667.934711	-437.456010	240.672371	662.387748	-309.298342	83.455197	255.891297	-414.372747	28.408949	210.804771	-378.590504	230.681117	158.462321	-444.798049	180.667526	550.734656	-456.615609	177.606244	465.728043	-441.114395	132.193903	390.313073	-436.114398	208.038230	460.012020	-418.513324	325.662847	184.358399	-376.216905	-204.648805	961.810783	-262.827666	1.420516	82.674250	-461.136958	-15.154600	81.442792	-62.563806	
1504	7.5200	518.731476	1335.389649	-20.163457	557.025480	1338.747385	-356.960818	493.863968	1440.267551	-189.810025	494.068824	1253.793231	-198.175674	526.568153	1061.065303	63.776174	768.323634	939.018634	-26.288306	514.760567	1065.665743	-519.431785	789.738612	930.979035	-443.964893	-73.389183	1223.198864	-274.648805	162.418316	1229.799451	-453.447417	114.918719	1239.230301	-49.532889	188.045368	1160.206926	-422.810161	139.537824	1191.541400	-103.472812	-38.678359	1301.580309	-220.680183	-28.264915	1290.099190	-315.872260	94.624789	1129.550243	-34.452370	53.596839	1092.069720	-464.792743	227.056710	1083.790915	-30.648030	315.359518	1086.132101	-37.238584	392.187530	1044.435436	-44.830409	323.678070	1121.539630	-47.848573	495.384814	1019.841504	-55.194591	513.920623	1001.287537	-191.858971	432.102387	881.210395	-53.808437	407.034824	798.466728	-73.073074	344.890489	737.794554	-78.346843	432.538841	787.667117	-100.927993	258.275141	624.035533	-94.356959	197.209080	640.486258	-144.778833	420.538710	460.068510	-135.743708	346.790998	476.551148	-68.219947	117.704854	958.776783	-483.384170	167.372077	889.436648	-480.757833	202.742681	901.423515	-479.479816	176.404228	800.647514	-467.175869	224.643357	670.438229	-439.301470	245.359661	665.184594	-311.668783	76.422910	262.186955	-413.930881	20.559134	218.799462	-378.022919	221.034852	160.869587	-445.009275	180.933318	554.195245	-457.917688	175.801747	469.215206	-442.033705	128.467972	395.025758	-436.651913	206.162918	462.869501	-419.586772	317.034514	184.282545	-377.053239	-204.636700	961.846150	-262.753033	1.410357	82.704786	-461.131236	-15.160224	81.497024	-62.588682	
